<?xml version="1.0" encoding="UTF-8"?> <svg xmlns="http://www.w3.org/2000/svg" xmlns:xlink="http://www.w3.org/1999/xlink" width="112px" height="44px" viewBox="0 0 112 44"> <!-- Generator: Sketch 51.3 (57544) - http://www.bohemiancoding.com/sketch --> <title>Logo</title> <desc>Created with Sketch.</desc> <defs> <polygon id="path-1" points="0.263278431 0.0982620546 11.4810439 0.0982620546 11.4810439 8.82608696 0.263278431 8.82608696"></polygon> <polygon id="path-3" points="0.132398474 0.116330978 22.8603928 0.116330978 22.8603928 37.0079984 0.132398474 37.0079984"></polygon> </defs> <g id="Guideline" stroke="none" stroke-width="1" fill="none" fill-rule="evenodd"> <g id="02.6-Download" transform="translate(-390.000000, -169.000000)"> <g id="Logo" transform="translate(390.000000, 169.000000)"> <path d="M2.66393138,24.5192395 L2.66393138,29.1541712 L11.0591208,29.1541712 C11.7955076,29.1541712 12.3910865,28.5538012 12.3910865,27.8137225 L12.3910865,25.8596881 C12.3910865,25.1196094 11.7955076,24.5192395 11.0591208,24.5192395 L2.66393138,24.5192395 Z M2.66393138,21.8364541 L11.0591208,21.8364541 C13.2682811,21.8364541 15.0588235,23.6375641 15.0588235,25.8596881 L15.0588235,27.8137225 C15.0588235,30.0339586 13.2682811,31.8369565 11.0591208,31.8369565 L2.66393138,31.8369565 L0,31.8369565 L0,15.1304348 L14.0389184,15.1304348 L14.0389184,17.8132201 L2.66393138,17.8132201 L2.66393138,21.8364541 Z" id="Fill-1" fill="#564D4B"></path> <path d="M39.9991675,22.4481518 L39.9991675,17.8132201 L48.3924542,17.8132201 C49.1307437,17.8132201 49.7263227,18.4135901 49.7263227,19.1536688 L49.7263227,21.1077032 C49.7263227,21.8477819 49.1307437,22.4481518 48.3924542,22.4481518 L39.9991675,22.4481518 Z M39.9991675,25.1290492 L48.3924542,25.1290492 C50.5997116,25.1290492 52.3921569,23.3298272 52.3921569,21.1077032 L52.3921569,19.1536688 C52.3921569,16.9334327 50.5997116,15.1304348 48.3924542,15.1304348 L39.9991675,15.1304348 L37.3333333,15.1304348 L37.3333333,31.8369565 L39.9991675,31.8369565 L39.9991675,25.1290492 Z" id="Fill-3" fill="#564D4B"></path> <path d="M59.5229274,15.1304348 L69.9607843,15.1304348 L69.9607843,17.812917 L59.5210276,17.812917 C58.7876798,17.812917 58.1930221,18.4132191 58.1930221,19.1532142 L58.1930221,27.8122894 C58.1930221,28.5522845 58.7876798,29.163913 59.5210276,29.1525866 L59.528627,29.1525866 L69.9607843,29.1525866 L69.9607843,31.8369565 L59.5229274,31.8369565 C57.3190843,31.8369565 55.5294118,30.0341624 55.5294118,27.8122894 L55.5294118,19.1532142 C55.5294118,16.9332289 57.3190843,15.1304348 59.5229274,15.1304348" id="Fill-5" fill="#564D4B"></path> <path d="M21.2139346,27.2006608 L29.9252079,27.2006608 L31.8826489,31.8369565 L34.8235294,31.8369565 L27.0673817,15.1304348 L24.0736484,15.1304348 L16.3137255,31.8369565 L19.254606,31.8369565 L21.2139346,27.2006608 Z M25.5705151,18.0960784 L28.6189888,24.5200663 L22.5182661,24.5200663 L25.5705151,18.0960784 Z" id="Fill-7" fill="#564D4B"></path> <path d="M47.040077,39.0020177 L47.040077,37.1484639 L50.2283498,37.1484639 C50.5710938,37.1484639 50.8516919,37.4259307 50.8516919,37.7637985 L50.8516919,38.3829081 C50.8516919,38.7245509 50.5710938,39.0020177 50.2283498,39.0020177 L47.040077,39.0020177 Z M47.040077,40.5309164 L50.5221304,40.5309164 C51.5541289,40.5309164 52.3921569,39.7022911 52.3921569,38.6792502 L52.3921569,37.4712315 C52.3921569,36.446303 51.5541289,35.6195652 50.5221304,35.6195652 L47.040077,35.6195652 L45.4996121,35.6195652 C45.4996121,38.0884535 45.4901961,41.0311117 45.4901961,43.5 L47.030661,43.5 C47.030661,42.469409 47.040077,41.5615074 47.040077,40.5309164 Z" id="Fill-9" fill="#564D4B"></path> <polygon id="Fill-11" fill="#564D4B" points="37.3333333 35.6195652 43.9215686 35.6195652 43.9215686 37.1525028 38.8587159 37.1525028 38.8605806 43.5 37.3351981 43.5"></polygon> <path d="M55.0803341,43.5 L56.7937469,43.5 C57.6890437,42.0465481 61.4901961,35.6195652 61.4901961,35.6195652 L59.7362633,35.6195652 L57.3552369,39.8209498 L54.7735406,35.6195652 L53.0196078,35.6195652 L56.3287329,41.3027894 C56.1280629,41.6547973 55.4199294,42.9814507 55.0803341,43.5" id="Fill-13" fill="#564D4B"></path> <polygon id="Fill-15" fill="#564D4B" points="62.1176471 35.6195652 62.1176471 43.4981079 63.6728346 43.4981079 63.6709146 37.1521348 68.3940768 37.1540268 68.3921569 42.2285349 68.3921569 43.5 69.9607843 43.5 69.9607843 35.6195652"></polygon> <path d="M109.901925,16.7355515 L109.193578,16.7355515 L109.193578,16.0054392 L109.981081,16.0054392 C110.167808,16.0054392 110.301765,16.039607 110.38701,16.1061444 C110.472255,16.17448 110.514878,16.2590004 110.514878,16.3633022 C110.514878,16.4352344 110.492552,16.5017717 110.449929,16.5611158 C110.405277,16.6222582 110.340328,16.6654176 110.255083,16.6941905 C110.169838,16.7211651 110.050089,16.7355515 109.901925,16.7355515 M110.352506,17.0736331 C110.305824,17.0358687 110.240876,17.0017009 110.151571,16.9639364 C110.39107,16.9351635 110.567649,16.8668279 110.683339,16.7589295 C110.796999,16.6528295 110.853829,16.5197548 110.853829,16.3633022 C110.853829,16.2428156 110.819325,16.1313206 110.752347,16.0306155 C110.683339,15.9299104 110.589975,15.8615747 110.474285,15.822012 C110.360625,15.7824492 110.192164,15.7608696 109.966873,15.7608696 L108.862745,15.7608696 L108.862745,17.9673913 L109.193578,17.9673913 L109.193578,16.9891127 L109.577181,16.9891127 C109.660397,16.9891127 109.721286,16.9927093 109.759849,16.9981042 C109.81059,17.0106924 109.859302,17.0304738 109.910043,17.0574484 C109.958755,17.0844229 110.015585,17.1347755 110.076474,17.2049095 C110.137364,17.2750434 110.21652,17.3757486 110.313943,17.5088232 L110.642746,17.9673913 L111.058824,17.9673913 L110.624479,17.366757 C110.537204,17.2516654 110.449929,17.1509603 110.352506,17.0736331" id="Fill-17" fill="#564D4B"></path> <path d="M109.804874,18.9451527 C108.745421,18.9451527 107.889856,18.084351 107.889856,17.0226956 C107.889856,15.9610401 108.745421,15.1002384 109.804874,15.1002384 C110.862422,15.1002384 111.717987,15.9610401 111.717987,17.0226956 C111.717987,18.084351 110.862422,18.9451527 109.804874,18.9451527 M109.804874,14.8152174 C108.591077,14.8152174 107.607843,15.8041829 107.607843,17.0226956 C107.607843,18.2412082 108.591077,19.2282609 109.804874,19.2282609 C111.016767,19.2282609 112,18.2412082 112,17.0226956 C112,15.8041829 111.016767,14.8152174 109.804874,14.8152174" id="Fill-19" fill="#564D4B"></path> <g id="Group-23" transform="translate(79.372549, 34.673913)"> <mask id="mask-2" fill="white"> <use xlink:href="#path-1"></use> </mask> <g id="Clip-22"></g> <path d="M11.3635137,8.06464783 C11.5329255,8.1856913 11.5159843,8.3596913 11.3333961,8.45047391 L10.6595137,8.76064783 C10.4769255,8.85143043 10.1851608,8.84953913 10.0025725,8.7511913 L0.587043137,3.99077826 C0.410101961,3.89432174 0.263278431,3.65034348 0.263278431,3.44608261 L0.263278431,0.312191304 C0.263278431,0.10603913 0.395043137,0.0360608696 0.562572549,0.158995652 L11.3635137,8.06464783 Z" id="Fill-21" fill="#564E4B" mask="url(#mask-2)"></path> </g> <g id="Group-26" transform="translate(82.823529, 0.000000)"> <mask id="mask-4" fill="white"> <use xlink:href="#path-3"></use> </mask> <g id="Clip-25"></g> <path d="M5.20198371,10.653057 C5.02086757,10.7598527 4.84737738,11.0115853 4.80543469,11.2137342 L0.142170739,34.893763 C0.0983215686,35.0959119 0.206991252,35.3590869 0.369042534,35.4830461 L2.37275897,36.940044 C2.54052971,37.0640032 2.75977557,37.0125124 2.85700633,36.8332483 L22.8121919,0.303414076 C22.9132356,0.124149946 22.8503216,0.0612167935 22.6711119,0.168012446 L5.20198371,10.653057 Z" id="Fill-24" fill="#C22218" mask="url(#mask-4)"></path> </g> <path d="M79.9817077,15.556214 C79.8163394,15.6755679 79.6862745,15.940799 79.6862745,16.1473003 L79.6862745,32.1047373 C79.6862745,32.3093441 79.8163394,32.5764697 79.9817077,32.6958237 L81.2953632,33.667706 C81.4607315,33.790849 81.6186674,33.7188577 81.6521127,33.5180399 L85.0152196,12.1877796 C85.0430906,11.9850673 84.9353226,11.9187595 84.7736705,12.036219 L79.9817077,15.556214 Z" id="Fill-27" fill="#9FC419"></path> <path d="M86.9552663,37.6144487 C86.8518461,37.7936532 86.9035562,38.0357698 87.0701776,38.1596878 L89.1270893,39.6333585 C89.2956258,39.7534636 89.5599217,39.7439315 89.7169671,39.6104813 L103.956388,27.569467 C104.115349,27.4360169 104.195787,27.1653038 104.138331,26.9689415 L100.616301,14.975588 C100.558845,14.7773192 100.422867,14.7601613 100.321362,14.9393658 L86.9552663,37.6144487 Z" id="Fill-29" fill="#F9CD00"></path> <path d="M103.563471,31.400286 C103.492549,31.2028142 103.302787,31.1472154 103.13986,31.2756679 L91.098566,40.6392801 C90.9375554,40.7658154 90.941389,40.970956 91.10815,41.0936569 L92.5265768,42.1270285 C92.691421,42.2516466 92.9808567,42.274653 93.1687024,42.1845445 L103.921911,37.6733694 C104.105923,37.5832609 104.20368,37.3493623 104.134675,37.1518905 L103.563471,31.400286 Z" id="Fill-31" fill="#58B2E4"></path> </g> </g> </g> </svg> 